<svg width="19" height="22" viewBox="0 0 19 22" fill="none" xmlns="http://www.w3.org/2000/svg">
<path d="M9.46977 11.3142C12.3986 11.3142 14.7724 8.94047 14.7724 6.0116C14.7724 3.08273 12.3986 0.708984 9.46977 0.708984C6.5409 0.708984 4.16715 3.08273 4.16715 6.0116C4.16715 8.94047 6.5409 11.3142 9.46977 11.3142ZM13.1816 12.6399H12.4898C11.5701 13.0624 10.5469 13.3027 9.46977 13.3027C8.39267 13.3027 7.37357 13.0624 6.44976 12.6399H5.75793C2.68407 12.6399 0.190186 15.1338 0.190186 18.2076V19.931C0.190186 21.0288 1.08086 21.9195 2.17867 21.9195H16.7609C17.8587 21.9195 18.7493 21.0288 18.7493 19.931V18.2076C18.7493 15.1338 16.2555 12.6399 13.1816 12.6399Z" fill="#878787"/>
</svg>
