<svg width="25" height="23" viewBox="0 0 25 23" fill="none" xmlns="http://www.w3.org/2000/svg">
<path d="M24.3046 9.72222H23.0242C22.6423 8.85417 22.0867 8.08594 21.4009 7.44358L22.2212 4.16667H20.8324C19.5563 4.16667 18.4278 4.7526 17.664 5.65538C17.3341 5.60764 17.0086 5.55556 16.6657 5.55556H11.1101C7.75076 5.55556 4.95128 7.94271 4.30458 11.1111H2.42958C1.78722 11.1111 1.2794 10.5252 1.40961 9.86111C1.5051 9.36632 1.96951 9.02778 2.47298 9.02778H2.51638C2.65961 9.02778 2.7768 8.91059 2.7768 8.76736V7.89931C2.7768 7.75608 2.65961 7.63889 2.51638 7.63889C1.2794 7.63889 0.176973 8.52431 0.0207229 9.74826C-0.170249 11.2326 0.984265 12.5 2.42958 12.5H4.16569C4.16569 14.7656 5.26812 16.7578 6.94347 18.0252V21.5278C6.94347 21.9097 7.25597 22.2222 7.63791 22.2222H10.4157C10.7976 22.2222 11.1101 21.9097 11.1101 21.5278V19.4444H16.6657V21.5278C16.6657 21.9097 16.9782 22.2222 17.3601 22.2222H20.1379C20.5199 22.2222 20.8324 21.9097 20.8324 21.5278V18.0252C21.3445 17.6389 21.8002 17.1832 22.1909 16.6667H24.3046C24.6865 16.6667 24.999 16.3542 24.999 15.9722V10.4167C24.999 10.0347 24.6865 9.72222 24.3046 9.72222ZM18.749 12.5C18.3671 12.5 18.0546 12.1875 18.0546 11.8056C18.0546 11.4236 18.3671 11.1111 18.749 11.1111C19.131 11.1111 19.4435 11.4236 19.4435 11.8056C19.4435 12.1875 19.131 12.5 18.749 12.5ZM11.1101 4.16667H16.6657C16.9001 4.16667 17.1301 4.18403 17.3558 4.20139C17.3558 4.18837 17.3601 4.17969 17.3601 4.16667C17.3601 1.86632 15.4938 0 13.1935 0C10.8931 0 9.0268 1.86632 9.0268 4.16667C9.0268 4.25781 9.0485 4.34462 9.05284 4.43576C9.71256 4.26649 10.3983 4.16667 11.1101 4.16667Z" fill="white"/>
</svg>
