<svg width="21" height="21" viewBox="0 0 21 21" fill="none" xmlns="http://www.w3.org/2000/svg">
<path d="M18.588 7.64954C16.7321 7.64954 15.9733 6.33711 16.8962 4.72732C17.4293 3.79426 17.1115 2.60487 16.1784 2.07169L14.4046 1.0566C13.5946 0.574691 12.5487 0.861787 12.0668 1.67181L11.954 1.86662C11.0312 3.47641 9.5137 3.47641 8.58064 1.86662L8.46785 1.67181C8.00645 0.861787 6.9606 0.574691 6.15058 1.0566L4.37674 2.07169C3.44368 2.60487 3.12583 3.80451 3.659 4.73758C4.59206 6.33711 3.83331 7.64954 1.97744 7.64954C0.91109 7.64954 0.0292969 8.52108 0.0292969 9.59769V11.4023C0.0292969 12.4686 0.900837 13.3504 1.97744 13.3504C3.83331 13.3504 4.59206 14.6629 3.659 16.2727C3.12583 17.2057 3.44368 18.3951 4.37674 18.9283L6.15058 19.9434C6.9606 20.4253 8.00645 20.1382 8.48836 19.3282L8.60115 19.1334C9.52395 17.5236 11.0415 17.5236 11.9745 19.1334L12.0873 19.3282C12.5692 20.1382 13.6151 20.4253 14.4251 19.9434L16.1989 18.9283C17.132 18.3951 17.4498 17.1955 16.9167 16.2727C15.9836 14.6629 16.7424 13.3504 18.5982 13.3504C19.6646 13.3504 20.5464 12.4789 20.5464 11.4023V9.59769C20.5361 8.53134 19.6646 7.64954 18.588 7.64954ZM10.2827 13.8323C8.44734 13.8323 6.95035 12.3354 6.95035 10.5C6.95035 8.66463 8.44734 7.16763 10.2827 7.16763C12.1181 7.16763 13.6151 8.66463 13.6151 10.5C13.6151 12.3354 12.1181 13.8323 10.2827 13.8323Z" fill="white"/>
</svg>
