<svg width="21" height="21" viewBox="0 0 21 21" fill="none" xmlns="http://www.w3.org/2000/svg">
<path d="M18.5885 7.64942C16.7326 7.64942 15.9738 6.33698 16.8966 4.7272C17.4298 3.79414 17.112 2.60474 16.1789 2.07157L14.4051 1.05648C13.595 0.574569 12.5492 0.861665 12.0673 1.67168L11.9545 1.8665C11.0317 3.47628 9.51419 3.47628 8.58113 1.8665L8.46834 1.67168C8.00694 0.861665 6.96109 0.574569 6.15107 1.05648L4.37723 2.07157C3.44417 2.60474 3.12631 3.80439 3.65949 4.73745C4.59255 6.33698 3.8338 7.64942 1.97793 7.64942C0.911578 7.64942 0.0297852 8.52096 0.0297852 9.59757V11.4022C0.0297852 12.4685 0.901325 13.3503 1.97793 13.3503C3.8338 13.3503 4.59255 14.6628 3.65949 16.2725C3.12631 17.2056 3.44417 18.395 4.37723 18.9282L6.15107 19.9433C6.96109 20.4252 8.00694 20.1381 8.48885 19.3281L8.60163 19.1332C9.52444 17.5235 11.0419 17.5235 11.975 19.1332L12.0878 19.3281C12.5697 20.1381 13.6156 20.4252 14.4256 19.9433L16.1994 18.9282C17.1325 18.395 17.4503 17.1953 16.9171 16.2725C15.9841 14.6628 16.7428 13.3503 18.5987 13.3503C19.6651 13.3503 20.5469 12.4788 20.5469 11.4022V9.59757C20.5366 8.53121 19.6651 7.64942 18.5885 7.64942ZM10.2832 13.8322C8.44783 13.8322 6.95084 12.3352 6.95084 10.4999C6.95084 8.66451 8.44783 7.16751 10.2832 7.16751C12.1186 7.16751 13.6156 8.66451 13.6156 10.4999C13.6156 12.3352 12.1186 13.8322 10.2832 13.8322Z" fill="#878787"/>
</svg>
