<svg width="19" height="23" viewBox="0 0 19 23" fill="none" xmlns="http://www.w3.org/2000/svg">
<path d="M16.9236 4.35602H13.2381C13.2381 2.31482 11.5796 0.644745 9.55262 0.644745C7.52559 0.644745 5.86712 2.31482 5.86712 4.35602H2.18162C1.07597 4.35602 0.338867 5.09827 0.338867 6.21165V21.0567C0.338867 21.9846 1.07597 22.9124 2.18162 22.9124H16.9236C17.845 22.9124 18.7664 22.1701 18.7664 21.0567V6.21165C18.7664 5.09827 18.0293 4.35602 16.9236 4.35602ZM9.55262 2.87151C10.2897 2.87151 11.0268 3.4282 11.0268 4.35602C11.0268 5.28384 10.2897 5.84053 9.55262 5.84053C8.81552 5.84053 8.07842 5.09827 8.07842 4.35602C8.07842 3.61376 8.81552 2.87151 9.55262 2.87151ZM11.3954 17.3455H4.02437V15.4898H11.3954V17.3455ZM15.0809 13.6342H4.02437V11.7786H15.0809V13.6342ZM15.0809 9.92293H4.02437V8.06729H15.0809V9.92293Z" fill="white"/>
</svg>
