<svg width="20" height="23" viewBox="0 0 20 23" fill="none" xmlns="http://www.w3.org/2000/svg">
<path d="M17.5945 4.35605H13.8833C13.8833 2.31485 12.2132 0.644775 10.172 0.644775C8.13078 0.644775 6.46071 2.31485 6.46071 4.35605H2.74944C1.63605 4.35605 0.893799 5.0983 0.893799 6.21168V21.0568C0.893799 21.9846 1.63605 22.9124 2.74944 22.9124H17.5945C18.5223 22.9124 19.4502 22.1702 19.4502 21.0568V6.21168C19.4502 5.0983 18.7079 4.35605 17.5945 4.35605ZM10.172 2.87154C10.9142 2.87154 11.6565 3.42823 11.6565 4.35605C11.6565 5.28387 10.9142 5.84056 10.172 5.84056C9.42973 5.84056 8.68747 5.0983 8.68747 4.35605C8.68747 3.61379 9.42973 2.87154 10.172 2.87154ZM12.0276 17.3455H4.60507V15.4899H12.0276V17.3455ZM15.7389 13.6342H4.60507V11.7786H15.7389V13.6342ZM15.7389 9.92296H4.60507V8.06732H15.7389V9.92296Z" fill="#878787"/>
</svg>
