<svg width="25" height="24" viewBox="0 0 25 24" fill="none" xmlns="http://www.w3.org/2000/svg">
<path d="M20.3817 0.150635H4.58259C3.53504 0.150635 2.5304 0.566771 1.78968 1.3075C1.04895 2.04822 0.632813 3.05287 0.632812 4.10041V19.8995C0.632813 20.9471 1.04895 21.9517 1.78968 22.6924C2.5304 23.4332 3.53504 23.8493 4.58259 23.8493H20.3817C21.4292 23.8493 22.4339 23.4332 23.1746 22.6924C23.9153 21.9517 24.3315 20.9471 24.3315 19.8995V4.10041C24.3315 3.05287 23.9153 2.04822 23.1746 1.3075C22.4339 0.566771 21.4292 0.150635 20.3817 0.150635ZM16.4319 13.3166H13.7987V15.9497C13.7987 16.2989 13.66 16.6338 13.4131 16.8807C13.1662 17.1276 12.8313 17.2663 12.4821 17.2663C12.133 17.2663 11.7981 17.1276 11.5512 16.8807C11.3043 16.6338 11.1656 16.2989 11.1656 15.9497V13.3166H8.53237C8.18318 13.3166 7.8483 13.1778 7.60139 12.9309C7.35449 12.684 7.21577 12.3491 7.21577 12C7.21577 11.6508 7.35449 11.3159 7.60139 11.069C7.8483 10.8221 8.18318 10.6834 8.53237 10.6834H11.1656V8.05019C11.1656 7.70101 11.3043 7.36613 11.5512 7.11922C11.7981 6.87231 12.133 6.7336 12.4821 6.7336C12.8313 6.7336 13.1662 6.87231 13.4131 7.11922C13.66 7.36613 13.7987 7.70101 13.7987 8.05019V10.6834H16.4319C16.7811 10.6834 17.116 10.8221 17.3629 11.069C17.6098 11.3159 17.7485 11.6508 17.7485 12C17.7485 12.3491 17.6098 12.684 17.3629 12.9309C17.116 13.1778 16.7811 13.3166 16.4319 13.3166Z" fill="white"/>
</svg>
