<svg width="25" height="24" viewBox="0 0 25 24" fill="none" xmlns="http://www.w3.org/2000/svg">
<path d="M20.3819 0.150635H4.58283C3.53529 0.150635 2.53065 0.566771 1.78992 1.3075C1.04919 2.04822 0.633057 3.05287 0.633057 4.10041V19.8995C0.633057 20.9471 1.04919 21.9517 1.78992 22.6924C2.53065 23.4332 3.53529 23.8493 4.58283 23.8493H20.3819C21.4295 23.8493 22.4341 23.4332 23.1749 22.6924C23.9156 21.9517 24.3317 20.9471 24.3317 19.8995V4.10041C24.3317 3.05287 23.9156 2.04822 23.1749 1.3075C22.4341 0.566771 21.4295 0.150635 20.3819 0.150635ZM16.4322 13.3166H13.799V15.9497C13.799 16.2989 13.6603 16.6338 13.4134 16.8807C13.1664 17.1276 12.8316 17.2663 12.4824 17.2663C12.1332 17.2663 11.7983 17.1276 11.5514 16.8807C11.3045 16.6338 11.1658 16.2989 11.1658 15.9497V13.3166H8.53261C8.18343 13.3166 7.84855 13.1778 7.60164 12.9309C7.35473 12.684 7.21602 12.3491 7.21602 12C7.21602 11.6508 7.35473 11.3159 7.60164 11.069C7.84855 10.8221 8.18343 10.6834 8.53261 10.6834H11.1658V8.05019C11.1658 7.70101 11.3045 7.36613 11.5514 7.11922C11.7983 6.87231 12.1332 6.7336 12.4824 6.7336C12.8316 6.7336 13.1664 6.87231 13.4134 7.11922C13.6603 7.36613 13.799 7.70101 13.799 8.05019V10.6834H16.4322C16.7813 10.6834 17.1162 10.8221 17.3631 11.069C17.61 11.3159 17.7488 11.6508 17.7488 12C17.7488 12.3491 17.61 12.684 17.3631 12.9309C17.1162 13.1778 16.7813 13.3166 16.4322 13.3166Z" fill="#878787"/>
</svg>
