<svg width="10" height="11" viewBox="0 0 10 11" fill="none" xmlns="http://www.w3.org/2000/svg">
<path d="M6.24983 5.49925V10.3142C6.27482 10.4975 6.21233 10.693 6.0686 10.8213C6.01079 10.878 5.94212 10.9229 5.86652 10.9536C5.79092 10.9842 5.70988 11 5.62804 11C5.54619 11 5.46515 10.9842 5.38956 10.9536C5.31396 10.9229 5.24529 10.878 5.18747 10.8213L3.9314 9.59314C3.86328 9.52797 3.81148 9.44829 3.78005 9.36032C3.74861 9.27234 3.73839 9.17846 3.75017 9.08599V5.49925H3.73143L0.131924 0.989866C0.0304432 0.862485 -0.015347 0.701007 0.00455909 0.540717C0.0244652 0.380427 0.108449 0.234358 0.238159 0.134426C0.356893 0.0488823 0.488125 0 0.625606 0H9.37439C9.51188 0 9.64311 0.0488823 9.76184 0.134426C9.89155 0.234358 9.97553 0.380427 9.99544 0.540717C10.0153 0.701007 9.96956 0.862485 9.86808 0.989866L6.26857 5.49925H6.24983Z" fill="black"/>
</svg>
