<svg width="15" height="10" viewBox="0 0 15 10" fill="none" xmlns="http://www.w3.org/2000/svg">
<path fill-rule="evenodd" clip-rule="evenodd" d="M0 5C0 4.73478 0.0877973 4.48043 0.244078 4.29289C0.400358 4.10536 0.61232 4 0.833333 4H10.8333C11.0543 4 11.2663 4.10536 11.4226 4.29289C11.5789 4.48043 11.6667 4.73478 11.6667 5C11.6667 5.26522 11.5789 5.51957 11.4226 5.70711C11.2663 5.89464 11.0543 6 10.8333 6H0.833333C0.61232 6 0.400358 5.89464 0.244078 5.70711C0.0877973 5.51957 0 5.26522 0 5ZM0 1C0 0.734784 0.0877973 0.48043 0.244078 0.292893C0.400358 0.105357 0.61232 0 0.833333 0H14.1667C14.3877 0 14.5996 0.105357 14.7559 0.292893C14.9122 0.48043 15 0.734784 15 1C15 1.26522 14.9122 1.51957 14.7559 1.70711C14.5996 1.89464 14.3877 2 14.1667 2H0.833333C0.61232 2 0.400358 1.89464 0.244078 1.70711C0.0877973 1.51957 0 1.26522 0 1ZM0 9C0 8.73478 0.0877973 8.48043 0.244078 8.29289C0.400358 8.10536 0.61232 8 0.833333 8H7.5C7.72101 8 7.93298 8.10536 8.08926 8.29289C8.24554 8.48043 8.33333 8.73478 8.33333 9C8.33333 9.26522 8.24554 9.51957 8.08926 9.70711C7.93298 9.89464 7.72101 10 7.5 10H0.833333C0.61232 10 0.400358 9.89464 0.244078 9.70711C0.0877973 9.51957 0 9.26522 0 9Z" fill="black"/>
</svg>
